<mxfile host="app.diagrams.net" modified="2023-05-05T15:43:49.505Z" agent="Mozilla/5.0 (Windows NT 10.0; Win64; x64) AppleWebKit/537.36 (KHTML, like Gecko) Chrome/112.0.0.0 Safari/537.36 Edg/112.0.1722.68" version="21.2.3" etag="vFgB8gkS0J4dnfqb2x_o" type="github">
  <diagram name="第 1 页" id="-c6WUF_GGal1VrNfI9oI">
    <mxGraphModel>
      <root>
        <mxCell id="0" />
        <mxCell id="1" parent="0" />
      </root>
    </mxGraphModel>
  </diagram>
</mxfile>
